<?xml version="1.0" encoding="UTF-8" standalone="no"?>
<!-- Created with Inkscape (http://www.inkscape.org/) -->

<svg
   width="48"
   height="48"
   viewBox="0 0 12.7 12.7"
   version="1.1"
   id="svg5"
   inkscape:version="1.2.1 (9c6d41e410, 2022-07-14)"
   sodipodi:docname="icone_copia.svg"
   xml:space="preserve"
   inkscape:export-filename="icone_copia.png"
   inkscape:export-xdpi="100"
   inkscape:export-ydpi="100"
   xmlns:inkscape="http://www.inkscape.org/namespaces/inkscape"
   xmlns:sodipodi="http://sodipodi.sourceforge.net/DTD/sodipodi-0.dtd"
   xmlns="http://www.w3.org/2000/svg"
   xmlns:svg="http://www.w3.org/2000/svg"><sodipodi:namedview
     id="namedview7"
     pagecolor="#ffffff"
     bordercolor="#999999"
     borderopacity="1"
     inkscape:pageshadow="0"
     inkscape:pageopacity="0"
     inkscape:pagecheckerboard="0"
     inkscape:document-units="mm"
     showgrid="false"
     inkscape:zoom="8.6274964"
     inkscape:cx="20.399893"
     inkscape:cy="27.528264"
     inkscape:window-width="1366"
     inkscape:window-height="701"
     inkscape:window-x="0"
     inkscape:window-y="0"
     inkscape:window-maximized="1"
     inkscape:current-layer="layer1"
     inkscape:showpageshadow="0"
     inkscape:deskcolor="#d1d1d1"
     showguides="true"><sodipodi:guide
       position="0,12.7"
       orientation="0,48"
       id="guide233"
       inkscape:locked="false" /><sodipodi:guide
       position="12.7,12.7"
       orientation="48,0"
       id="guide235"
       inkscape:locked="false" /><sodipodi:guide
       position="12.7,0"
       orientation="0,-48"
       id="guide237"
       inkscape:locked="false" /><sodipodi:guide
       position="0,0"
       orientation="-48,0"
       id="guide239"
       inkscape:locked="false" /><sodipodi:guide
       position="0.77161277,12.314194"
       orientation="1,0"
       id="guide243"
       inkscape:locked="false" /><sodipodi:guide
       position="0.77161277,11.928387"
       orientation="0,-1"
       id="guide245"
       inkscape:locked="false" /><sodipodi:guide
       position="11.928387,0.3858058"
       orientation="1,0"
       id="guide377"
       inkscape:locked="false" /><sodipodi:guide
       position="12.314193,0.77161237"
       orientation="0,-1"
       id="guide379"
       inkscape:locked="false" /></sodipodi:namedview><defs
     id="defs2" /><g
     inkscape:label="Camada 1"
     inkscape:groupmode="layer"
     id="layer1"><path
       style="fill:#cccccc;stroke-width:0.999996"
       d="m 10.962774,11.921724 c 0.422361,-0.09058 0.680699,-0.3039 0.825278,-0.681479 l 0.0468,-0.122226 0.0061,-3.8916512 c 0.0044,-2.7705424 -7.79e-4,-3.9334338 -0.01796,-4.0366908 -0.0649,-0.389957 -0.341567,-0.6939299 -0.738887,-0.8118153 -0.106321,-0.031545 -0.416055,-0.03513 -3.0319675,-0.03513 -2.6149671,0 -2.9256846,0.00359 -3.0319661,0.03511 -0.3364424,0.09974 -0.5751687,0.3229527 -0.7028046,0.6571251 l -0.047871,0.1253336 -0.00592,3.8691998 c -0.00363,2.3635999 0.00217,3.9274508 0.014822,4.0188978 0.05282,0.381141 0.3049725,0.685566 0.6918479,0.835264 0.1016182,0.03933 0.2245023,0.04111 3.0273815,0.04421 1.6068049,0.0017 2.9410848,-9.91e-4 2.9650668,-0.0061 z M 5.1104967,11.265149 c -0.041114,-0.02096 -0.1048866,-0.07581 -0.141713,-0.121901 l -0.066957,-0.08377 V 7.1409894 3.2225121 l 0.054132,-0.078998 c 0.029771,-0.043449 0.093543,-0.1015957 0.1417129,-0.1292145 l 0.087581,-0.050216 h 2.8669588 c 2.7761716,0 2.8696086,0.00131 2.9506606,0.04156 0.04604,0.022859 0.109808,0.081006 0.141713,0.1292172 l 0.05801,0.087656 0.0062,3.8605425 c 0.0034,2.1232985 4.99e-4,3.8926387 -0.0066,3.9318647 -0.01542,0.08619 -0.127002,0.218675 -0.217319,0.258029 -0.05325,0.0232 -0.612601,0.02884 -2.9327701,0.02949 -2.6873759,7.61e-4 -2.871641,-0.0015 -2.941715,-0.0373 z M 7.7142814,9.7127943 C 7.8241373,9.6673554 7.9058458,9.5144821 7.8833036,9.3965613 7.8662338,9.3072627 7.7453754,9.1975715 7.6459623,9.1811485 7.5160736,9.1596903 6.1119973,9.1652188 6.0156469,9.1875671 5.8286437,9.2309414 5.7307964,9.434088 5.8242295,9.5849799 c 0.093274,0.150634 0.080489,0.1487712 1.0104362,0.1472336 0.4598059,-7.494e-4 0.8556336,-0.0095 0.8796157,-0.019419 z M 9.9694402,8.5818557 c 0.080526,-0.043189 0.1539588,-0.1576292 0.1539588,-0.2399526 0,-0.077367 -0.06176,-0.1922745 -0.1272406,-0.2367292 -0.054975,-0.037325 -0.1640222,-0.03943 -2.0420557,-0.03943 -1.8780333,0 -1.9870799,0.00212 -2.0420559,0.03943 -0.065478,0.044455 -0.1272396,0.1593626 -0.1272396,0.2367292 0,0.082324 0.073427,0.1967631 0.1539582,0.2399526 0.070348,0.037729 0.1770822,0.039838 2.0153373,0.039838 1.8382557,0 1.9449894,-0.00212 2.0153375,-0.039838 z M 9.9170979,7.4868362 C 10.086468,7.4369824 10.171168,7.2325015 10.082126,7.0884285 9.9873384,6.9350541 10.102721,6.9429424 7.9541017,6.9429424 c -2.1423082,0 -2.033648,-0.00721 -2.1253479,0.1411568 -0.079248,0.1282263 -0.038227,0.2929742 0.092666,0.3721471 0.068439,0.041398 0.1270117,0.042755 1.9999779,0.046364 1.0825646,0.00208 1.9585431,-0.00484 1.9957002,-0.015774 z m 0.083886,-1.1562739 c 0.122318,-0.096215 0.154021,-0.2403012 0.0797,-0.3621994 -0.088374,-0.1449466 0.02971,-0.1373208 -2.1265743,-0.1373208 -2.1562873,0 -2.0381951,-0.00762 -2.126574,0.1373208 -0.074326,0.1218982 -0.042625,0.265985 0.079695,0.3621994 0.057732,0.045415 0.062861,0.045529 2.04688,0.045529 1.9840195,0 1.9891441,-1.071e-4 2.0468793,-0.045529 z M 9.9742451,4.4896964 c 0.072996,-0.039646 0.1491569,-0.1609219 0.1491569,-0.2375021 0,-0.077372 -0.05093,-0.1725608 -0.122416,-0.2287902 C 9.944463,3.9789421 9.922487,3.9778751 9.0637928,3.9778751 H 8.1844785 l -0.073809,0.073809 c -0.098194,0.098194 -0.1153488,0.1902022 -0.057674,0.3093389 0.078641,0.1624524 0.075896,0.1620219 1.0272064,0.1610289 0.6862493,-7.149e-4 0.8464677,-0.00652 0.8940432,-0.032356 z M 3.517404,9.1036246 V 8.8192571 l -0.9337561,-0.00613 -0.9337553,-0.00613 -0.08235,-0.062829 C 1.4149751,8.6277716 1.4244129,8.8182879 1.4244129,5.8552219 V 3.174571 l 0.65951,-0.00714 c 0.6575295,-0.00711 0.6598716,-0.00729 0.7794217,-0.063669 0.1360468,-0.06415 0.243712,-0.1648194 0.3126033,-0.2922906 0.045031,-0.083328 0.04742,-0.1180056 0.053716,-0.7794201 l 0.00658,-0.6922124 h 1.6743942 1.6743942 l 0.07408,0.04975 c 0.040745,0.027365 0.09798,0.08651 0.1271898,0.1314326 l 0.053107,0.081674 0.27392,-0.00604 0.2739206,-0.00604 -0.00763,-0.064677 C 7.346907,1.248609 7.1027519,0.95328737 6.8054449,0.83141962 6.6900283,0.78410767 6.6825813,0.78390277 4.859018,0.77776594 L 3.0284504,0.77161887 1.9430044,1.856835 0.85755989,2.9421178 v 2.7823065 c 0,1.7777815 0.007889,2.8241307 0.0219655,2.8981484 0.0629562,0.3320062 0.29953241,0.6007999 0.62707391,0.7124951 0.08692,0.029642 0.2530021,0.036563 1.0569611,0.044045 l 0.9538356,0.00888 z"
       id="path255" /></g></svg>
