<?xml version="1.0" encoding="UTF-8" standalone="no"?>
<!-- Created with Inkscape (http://www.inkscape.org/) -->

<svg
   width="48"
   height="48"
   viewBox="0 0 12.7 12.7"
   version="1.1"
   id="svg5"
   inkscape:version="1.2.1 (9c6d41e410, 2022-07-14)"
   sodipodi:docname="logo.svg"
   xml:space="preserve"
   xmlns:inkscape="http://www.inkscape.org/namespaces/inkscape"
   xmlns:sodipodi="http://sodipodi.sourceforge.net/DTD/sodipodi-0.dtd"
   xmlns="http://www.w3.org/2000/svg"
   xmlns:svg="http://www.w3.org/2000/svg"><sodipodi:namedview
     id="namedview7"
     pagecolor="#ffffff"
     bordercolor="#999999"
     borderopacity="1"
     inkscape:pageshadow="0"
     inkscape:pageopacity="0"
     inkscape:pagecheckerboard="0"
     inkscape:document-units="mm"
     showgrid="false"
     inkscape:zoom="1.5251403"
     inkscape:cx="70.813158"
     inkscape:cy="69.173965"
     inkscape:window-width="1366"
     inkscape:window-height="701"
     inkscape:window-x="0"
     inkscape:window-y="0"
     inkscape:window-maximized="1"
     inkscape:current-layer="layer1"
     inkscape:showpageshadow="0"
     inkscape:deskcolor="#d1d1d1"
     showguides="true"><sodipodi:guide
       position="0,12.7"
       orientation="0,48"
       id="guide233"
       inkscape:locked="false" /><sodipodi:guide
       position="12.7,12.7"
       orientation="48,0"
       id="guide235"
       inkscape:locked="false" /><sodipodi:guide
       position="12.7,0"
       orientation="0,-48"
       id="guide237"
       inkscape:locked="false" /><sodipodi:guide
       position="0,0"
       orientation="-48,0"
       id="guide239"
       inkscape:locked="false" /><sodipodi:guide
       position="0.77161277,12.314194"
       orientation="1,0"
       id="guide243"
       inkscape:locked="false" /><sodipodi:guide
       position="0.77161277,11.928387"
       orientation="0,-1"
       id="guide245"
       inkscape:locked="false" /><sodipodi:guide
       position="11.928387,0.3858058"
       orientation="1,0"
       id="guide377"
       inkscape:locked="false" /><sodipodi:guide
       position="12.314193,0.77161237"
       orientation="0,-1"
       id="guide379"
       inkscape:locked="false" /></sodipodi:namedview><defs
     id="defs2" /><g
     inkscape:label="Camada 1"
     inkscape:groupmode="layer"
     id="layer1"><path
       id="path2048"
       style="font-size:15.9382px;line-height:1.25;font-family:Montserrat;-inkscape-font-specification:Montserrat;word-spacing:0px;fill:#1faac7;fill-opacity:1;stroke-width:0.264583"
       d="M 0.77144382,0.77152913 V 11.928471 H 3.3537158 V 8.8206502 h 0.792716 V 6.764445 H 3.3537158 V 2.8752767 h 2.103747 c 0.775658,0 1.365118,0.1700321 1.768885,0.5100464 0.301655,0.2460873 0.490602,0.5753887 0.56689,0.9875366 0.265506,-0.080422 0.538951,-0.1339009 0.815971,-0.1581299 0.629331,-0.075919 1.260852,0.017176 1.8231442,0.2516642 C 10.383512,3.7858047 10.192154,3.1856653 9.8561608,2.6680542 9.4630198,2.0624038 8.9000138,1.5949447 8.1668588,1.2655558 7.4443278,0.93616705 6.5887728,0.77152913 5.6006068,0.77152913 Z M 7.4852458,7.459493 c -0.07264,0.098944 -0.124683,0.2143872 -0.147794,0.3462321 -0.125114,1.0696723 -0.08811,2.1540429 -0.07131,3.2364949 l 0.613916,0.886251 h 1.458826 c -0.0011,-0.62512 0.0036,-1.250652 0.0052,-1.875855 l -0.810287,-1.1616858 -0.0016,-0.00258 z" /><path
       id="path2050"
       style="font-size:13.1856px;line-height:1.25;font-family:Montserrat;-inkscape-font-specification:Montserrat;word-spacing:0px;fill:#c56d24;fill-opacity:1;stroke-width:0.264583"
       d="m 8.9879968,4.7289103 c -0.483471,0 -0.927344,0.083613 -1.331702,0.2506307 -0.404358,0.1582271 -0.742939,0.386873 -1.015441,0.6857463 V 4.8343302 h -1.964738 v 7.0941408 h 2.057238 V 8.4211914 c 0,-0.6138294 0.144688,-1.0790971 0.434082,-1.3952637 l -0.667142,-0.9167399 0.667142,0.9167399 c 0.009,-0.00983 0.01811,-0.019399 0.02739,-0.028939 0.307664,-0.3252444 0.720568,-0.4878255 1.239201,-0.4878255 0.465891,0 0.822021,0.1403872 1.068152,0.4216797 0.246131,0.2725021 0.368969,0.6900517 0.368969,1.2526367 V 11.928471 H 11.928387 V 7.8672201 C 11.928386,6.8299539 11.655869,6.0475 11.110865,5.5200765 10.574651,4.992653 9.8670358,4.7289103 8.9879968,4.7289103 Z" /></g></svg>
